<?xml version="1.0" standalone="no"?>
<!DOCTYPE svg PUBLIC "-//W3C//DTD SVG 20010904//EN"
 "http://www.w3.org/TR/2001/REC-SVG-20010904/DTD/svg10.dtd">
<svg version="1.0" xmlns="http://www.w3.org/2000/svg"
 width="700.000000pt" height="700.000000pt" viewBox="0 0 700.000000 700.000000"
 preserveAspectRatio="xMidYMid meet">
<metadata>
Created by potrace 1.11, written by Peter Selinger 2001-2013
</metadata>
<g transform="translate(0.000000,700.000000) scale(0.100000,-0.100000)"
fill="#000000" stroke="none">
<path d="M3305 6983 c-211 -17 -457 -50 -519 -69 -15 -5 295 -320 1535 -1560
855 -855 1559 -1554 1564 -1554 6 0 210 200 454 444 l443 443 -37 94 c-52 134
-182 396 -257 519 -175 287 -412 573 -653 788 -595 532 -1303 834 -2090 892
-130 9 -346 11 -440 3z"/>
<path d="M2205 6740 c-944 -378 -1697 -1178 -2015 -2140 -160 -482 -213 -996
-155 -1495 14 -123 39 -278 52 -319 4 -15 329 305 1559 1535 855 855 1554
1559 1554 1564 0 10 -880 895 -890 895 -3 0 -50 -18 -105 -40z"/>
<path d="M3217 5312 l-277 -277 280 -280 280 -280 280 280 280 280 -277 277
c-153 153 -280 278 -283 278 -3 0 -130 -125 -283 -278z"/>
<path d="M5352 2677 c-853 -854 -1552 -1557 -1552 -1562 0 -6 200 -210 444
-454 l443 -443 94 37 c134 52 396 182 519 257 711 433 1253 1111 1510 1888
160 483 213 997 155 1495 -16 141 -44 303 -54 322 -4 8 -589 -570 -1559 -1540z"/>
<path d="M4755 3780 l-280 -280 280 -280 280 -280 280 280 280 280 -280 280
-280 280 -280 -280z"/>
<path d="M1680 3775 l-275 -275 275 -275 c151 -151 279 -275 285 -275 6 0 134
124 285 275 l275 275 -275 275 c-151 151 -279 275 -285 275 -6 0 -134 -124
-285 -275z"/>
<path d="M661 2756 l-443 -443 37 -94 c52 -134 182 -396 257 -519 433 -711
1111 -1253 1888 -1510 482 -160 996 -213 1495 -155 123 14 278 39 319 52 15 4
-305 329 -1535 1559 -855 855 -1559 1554 -1564 1554 -6 0 -210 -200 -454 -444z"/>
<path d="M2940 2247 l0 -282 280 -280 280 -280 280 280 280 280 0 282 0 283
-560 0 -560 0 0 -283z"/>
</g>
</svg>
